<?xml version="1.0" encoding="UTF-8" standalone="no"?>
<!-- Created with Inkscape (http://www.inkscape.org/) -->

<svg
   width="176.43913mm"
   height="133.44058mm"
   viewBox="0 0 176.43913 133.44058"
   version="1.1"
   id="svg5"
   xml:space="preserve"
   inkscape:version="1.2.2 (b0a8486541, 2022-12-01)"
   sodipodi:docname="flowers.svg"
   inkscape:export-filename="flowers.png"
   inkscape:export-xdpi="1000"
   inkscape:export-ydpi="1000"
   xmlns:inkscape="http://www.inkscape.org/namespaces/inkscape"
   xmlns:sodipodi="http://sodipodi.sourceforge.net/DTD/sodipodi-0.dtd"
   xmlns="http://www.w3.org/2000/svg"
   xmlns:svg="http://www.w3.org/2000/svg"><sodipodi:namedview
     id="namedview7"
     pagecolor="#000000"
     bordercolor="#666666"
     borderopacity="1.0"
     inkscape:showpageshadow="2"
     inkscape:pageopacity="0"
     inkscape:pagecheckerboard="0"
     inkscape:deskcolor="#d1d1d1"
     inkscape:document-units="mm"
     showgrid="false"
     inkscape:zoom="0.54866744"
     inkscape:cx="93.86378"
     inkscape:cy="555.89229"
     inkscape:window-width="1920"
     inkscape:window-height="1011"
     inkscape:window-x="0"
     inkscape:window-y="32"
     inkscape:window-maximized="1"
     inkscape:current-layer="layer1" /><defs
     id="defs2"><clipPath
       clipPathUnits="userSpaceOnUse"
       id="clipPath2486"><rect
         style="fill:none;stroke:#71c837;stroke-width:1.05807;stroke-linecap:round;stroke-linejoin:round;stroke-dasharray:none"
         id="rect2488"
         width="79.828445"
         height="92.598038"
         x="125.99163"
         y="192.19627" /></clipPath></defs><g
     inkscape:label="Layer 1"
     inkscape:groupmode="layer"
     id="layer1"
     transform="translate(-22.114786,-164.39019)"><path
       style="fill:none;stroke:#ffffff;stroke-width:0.973393;stroke-dasharray:none"
       d="m 36.313214,252.68785 c 0.102807,0.0112 0.204456,0.0218 0.404763,-0.0157 0.544914,-0.10225 1.680834,-0.5263 2.025391,-1.04748 0.183306,-0.27726 0.685722,-1.60494 0.143488,-1.7591 -0.255355,-0.0727 -0.527561,0.13817 -0.701608,0.29735 -0.47175,0.43137 -0.894224,0.91299 -1.292769,1.41191 -0.155072,0.19413 -0.393124,0.49437 -0.490573,0.70834 -0.07736,0.16996 -0.05601,0.27453 -0.205213,0.44671 -0.09947,0.11475 -0.313846,0.24261 -0.440032,0.26092 -0.196613,0.0286 -0.262133,0.0228 -0.505955,0.0716 -1.160002,0.23152 -3.224959,0.57097 -4.014602,-0.57679 -0.4289,-0.62338 -0.09613,-1.57129 0.270737,-2.12501 0.64899,-0.97958 1.6992,-1.76412 2.731956,-2.28914 0.371625,-0.18893 0.741272,-0.37472 1.113102,-0.53662 0.175514,-0.0764 0.324671,-0.10286 0.375775,-0.26725 0.04649,-0.14956 -0.107974,-0.30565 -0.226163,-0.4039 -0.408865,-0.33995 -0.839079,-0.66867 -1.210146,-1.05668 -1.001032,-1.04683 -1.923287,-2.48445 -1.544427,-3.99705 0.338535,-1.35182 1.672587,-1.46308 2.807344,-1.11179 0.350625,0.10853 0.685871,0.23082 1.011909,0.3911 0.150774,0.0741 0.305347,0.15706 0.455359,0.22526 0.202788,0.0922 0.335147,0.11814 0.505956,0.14126 -0.03213,-0.17067 -0.04265,-0.29457 -0.103164,-0.50596 -0.06931,-0.2422 -0.179715,-0.60178 -0.24458,-0.86012 -0.200711,-0.79911 -0.627891,-2.49699 0.398341,-2.87918 1.734971,-0.64617 3.13859,0.97026 3.996894,2.27203 0.273318,0.41453 0.539498,0.87854 0.770163,1.31548 0.13479,0.25532 0.205469,0.55676 0.448985,0.65472 0.173646,0.0698 0.315968,-0.1397 0.414529,-0.25005 0.243111,-0.27231 0.560297,-0.59688 0.845656,-0.83781 1.033663,-0.87252 2.649686,-2.03723 4.098238,-1.82847 0.961316,0.13858 1.403011,1.18383 1.462715,2.05923 0.04857,0.70764 -0.155328,1.18237 -0.197826,1.72025 0.13256,-0.0167 0.245388,-0.0365 0.404762,-0.0506 0.432592,-0.0381 1.138401,-0.17673 1.619058,-0.0785 1.224918,0.25049 2.10629,1.57032 1.734414,2.81058 -0.163421,0.54396 -0.473573,0.96657 -0.874292,1.36602 -0.725537,0.72332 -1.643846,1.21036 -2.58037,1.58856 -0.434112,0.17536 -0.978014,0.3363 -1.416675,0.46462 -0.139645,0.0408 -0.325837,0.0777 -0.343037,0.23025 -0.01468,0.1265 0.06274,0.22202 0.154314,0.31648 0.209468,0.21514 0.514557,0.43112 0.745273,0.63573 0.807001,0.71639 1.638283,1.47886 2.242901,2.38053 0.262589,0.39176 0.579822,0.89669 0.310655,1.36587 -0.496847,0.8663 -1.930219,0.53383 -2.705343,0.28637 -0.210477,-0.0672 -0.507978,-0.18822 -0.708335,-0.23937 -0.08753,-0.0224 -0.232235,-0.0639 -0.323305,0.006 -0.09917,0.0758 -0.06578,0.18281 -0.05211,0.3015 0.02681,0.2375 0.02124,0.5615 0.02124,0.80948 0,0.83184 -0.03188,1.77944 -0.616762,2.42783 -0.680505,0.75468 -1.665094,0.44741 -2.368373,-0.1012 -1.19284,-0.93075 -1.841174,-2.50082 -1.872038,-3.99628 m -5.211342,-11.33392 c 0.04624,0.0742 0.118897,0.18422 0.209111,0.30382 0.105999,0.14047 0.163421,0.2538 0.319054,0.36834 0.167371,0.12315 0.256926,0.0817 0.433151,0.17608 0.393783,0.21093 1.081527,0.91395 1.408023,1.27677 0.235725,0.26189 0.894932,1.00048 0.452474,1.32833 -0.354373,0.26255 -0.869334,-0.27614 -1.079909,-0.519 -0.339698,-0.39177 -0.6199,-0.81712 -0.881173,-1.26469 -0.08646,-0.14809 -0.21569,-0.41311 -0.25141,-0.55645 -0.04964,-0.19925 -0.04635,-0.27362 -0.05277,-0.35427 m 4.75598,-0.70833 c 0,0.40895 -0.09249,0.40537 0.06668,0.70307 0.118648,0.22192 0.266486,0.23062 0.398999,0.46138 0.28971,0.50455 1.182215,2.30235 0.09087,2.5567 -0.48233,0.11242 -0.434567,-0.64393 -0.469831,-0.9384 -0.0468,-0.39162 -0.133676,-1.17053 -0.137115,-1.51786 -0.0026,-0.24711 0.02918,-0.37148 0.100986,-0.50596 m 6.476231,0 c -0.0931,0.0962 -0.229707,0.24094 -0.273725,0.35427 -0.06527,0.16671 -0.03694,0.23137 -0.115862,0.45526 -0.348603,0.98944 -1.140928,2.03642 -1.887213,2.7827 -0.336965,0.33687 -0.7478,0.67009 -1.163699,0.89281 -0.150267,0.0806 -0.284848,0.11074 -0.301546,0.27352 -0.01468,0.13767 0.116874,0.24175 0.202382,0.30332 0.140148,0.10018 0.351132,0.21635 0.503931,0.31809 0.207949,0.13848 0.543395,0.33368 0.694169,0.49842 0.08247,0.09 0.10524,0.20547 0.208456,0.2974 0.07791,0.0695 0.166965,0.0783 0.261074,0.0892 0.117381,0.0136 0.26107,0.008 0.354165,0.009 m -2.276796,-1.56846 c -0.520123,0 -0.620303,-0.0298 -0.713399,-0.40476 -0.06172,-0.24802 -0.02783,-0.82628 0.05768,-1.1131 0.324826,-1.08822 1.827005,-1.91242 2.780732,-2.3905 0.623337,-0.31252 0.891492,-0.48359 1.366082,-0.49345 m -8.19648,5.00896 c -0.0809,-0.11106 -0.06866,-0.28 -0.274883,-0.48016 -0.194085,-0.18842 -0.66958,-0.24948 -0.939408,-0.27499 -0.782205,-0.0739 -1.602257,-0.10993 -2.377986,0.047 -0.331705,0.067 -0.723318,0.0361 -0.860228,0.31486 -0.0675,0.13732 0.06046,0.27372 0.157251,0.34441 0.199752,0.14591 0.567225,0.28849 0.804166,0.38867 1.005636,0.42521 2.204396,0.61236 3.086326,-0.13742 0.159021,0.15903 0.182345,0.18235 0.35417,0.35418 0.144854,-0.29978 0.101393,-0.40937 0.05059,-0.55656 0.119709,-0.0767 0.245797,-0.12644 0.386957,-0.35493 0.189379,-0.30655 0.529379,-0.94734 0.953928,-0.40177 0.382099,0.49107 0.30428,1.23959 0.22095,1.81921 -0.223226,1.55267 -0.891139,3.14668 -1.550703,4.5536 -0.233499,0.49806 -0.647976,1.42421 -0.911527,1.86986 -0.151181,0.2556 -0.207141,0.16316 -0.36783,0.34693 -0.127905,0.14622 -0.170255,0.47393 -0.190441,0.66715 -0.02328,0.22247 0.03172,0.35882 -0.09962,0.54269 -0.134685,0.18846 -0.265577,0.18493 -0.420802,0.37025 -0.419286,0.50064 -1.188439,1.16284 -1.866165,1.36168 -0.591971,0.17365 -1.068276,-0.15309 -1.425833,-0.60502 -0.765562,-0.96759 -0.632597,-2.33088 -0.27701,-3.44044 0.159272,-0.497 0.409115,-0.93678 0.437953,-1.2649 m 9.208385,-6.12205 c -0.0769,0.0418 -0.140654,0.0855 -0.354166,0.12178 -0.382503,0.0648 -1.862676,0.15948 -1.313864,0.98935 0.48359,0.731 1.848152,0.76637 2.629345,0.67418 0.249439,-0.0294 0.745276,-0.0342 0.961316,-0.0756 0.173038,-0.0333 0.230716,-0.0933 0.303576,-0.14122 m -11.383993,-1.3152 c 0.210528,0.0623 0.284803,0.0505 0.505953,0.0506 m 4.503003,0.30358 -0.303573,0.20238 m 0.303573,0.40476 -0.535101,1.66965 -0.671352,3.23812 -0.145155,1.46727 -0.01174,0.5563 0.09846,0.30382 m 7.741116,-2.47918 c -0.153306,-0.0122 -0.274734,-0.021 -0.455363,-0.0809 -0.296994,-0.0984 -0.636993,-0.32052 -0.910719,-0.48597 -0.569199,-0.34364 -1.145482,-0.73596 -1.619053,-1.20418 -0.349111,-0.345 -0.974423,-0.93064 -0.452325,-1.40508 0.284346,-0.25829 0.663308,-0.26426 1.008873,-0.13489 0.783219,0.29325 1.347865,1.16395 1.773373,1.84376 0.155837,0.24857 0.433099,0.70995 0.530241,0.96131 0.08247,0.2127 0.09512,0.35088 0.124973,0.50595 m 0,0 c 0.111309,0.13059 0.14268,0.16186 0.252976,0.35417 m -8.196472,3.44049 c 0.04418,0.0828 0.09239,0.14242 0.100282,0.35428 0.01457,0.39119 0.0513,1.50303 0.05151,1.97311 0.0011,2.15806 0.303424,4.31485 0.303573,6.47623 1.93e-4,3.55515 0.202383,7.11475 0.202383,10.67566 0,1.06352 -0.04381,2.12805 -0.05065,3.18752 -0.0026,0.39818 -0.01585,1.04429 -0.06522,1.41667 -0.02029,0.15281 -0.05236,0.21403 -0.06274,0.35417 -0.01239,0.16747 0.01505,0.28739 0.03133,0.45536 0.01843,0.19074 0.03475,0.31369 0.158669,0.48623 0.131496,0.18315 0.301955,0.22261 0.426116,0.42551 0.168178,0.27423 0.377897,0.77106 0.413818,1.11209 0.01548,0.14671 0.03398,0.36428 -0.108476,0.45333 -0.340053,0.2125 -0.602541,-0.35417 -0.66801,-0.60512 -0.18609,-0.7134 -0.21746,-1.04682 -0.07483,-1.31548 m 1.770844,7.33634 c -0.02055,-0.36277 -0.0506,-0.51354 -0.0506,-0.86012 -1.89e-4,-3.22395 1.256795,-6.43423 2.668916,-9.25898 1.467268,-2.93454 3.300343,-5.73905 4.780772,-8.65184 0.498365,-0.97952 0.966371,-1.94322 1.338252,-2.98514 0.656729,-1.83889 1.062505,-3.77179 1.702537,-5.61609 0.157352,-0.45309 0.299526,-0.9809 0.49533,-1.4139 0.09006,-0.19878 0.297504,-0.28997 0.457891,-0.0917 0.323812,0.39986 0.238304,1.31442 0.243869,1.80915 0.0172,1.43301 0.101191,2.86314 0.101191,4.30062 0,1.9341 0.02328,3.85942 -0.334434,5.76788 -0.852534,4.54905 -3.02106,8.82943 -5.196164,12.85127 -0.735153,1.3595 -1.658017,2.82475 -2.969451,3.69348 -0.501402,0.3319 -1.057952,0.58994 -1.669654,0.64914 -0.668416,0.0648 -1.004674,-0.1012 -1.517865,-0.14319 0,0.55554 0.105696,1.42224 0.232031,2.17561 0.304585,1.81587 0.678688,3.66919 0.678688,5.51491 m -1.011906,-7.99409 c -0.17506,-0.0237 -0.285007,-0.036 -0.45536,-0.13358 -0.317892,-0.18214 -0.744765,-0.60107 -1.009938,-0.87834 -0.696802,-0.72856 -1.282544,-1.58717 -2.025994,-2.26819 -3.638934,-3.33222 -6.715952,-7.59135 -8.073783,-12.3539 -0.416402,-1.4607 -0.798197,-3.02714 -0.780031,-4.5536 0.0066,-0.55605 0.121832,-1.37595 0.657589,-1.66238 0.38043,-0.20344 0.78661,0.045 1.057952,0.3051 0.655415,0.6282 1.097165,1.58849 1.543669,2.36918 1.57079,2.74582 2.491478,5.8109 4.492378,8.34826 0.50211,0.63649 1.077382,1.21734 1.616779,1.82145 0.390143,0.43713 0.591868,0.78675 0.952918,0.91071"
       id="path248"
       sodipodi:nodetypes="cccscsccccccscsccccsccccssccccccccccccccccccscccsccccccccccccccsccccccccccccccccccccccccccccccccccssccccccsscccccccccccccccccccccccccccccsccsccsccccccccccccccccscccccccccsccccccccc" /><path
       style="fill:none;stroke:#ffffff;stroke-width:0.973393;stroke-dasharray:none"
       d="m 89.451628,233.48189 c -0.839455,-0.53217 -4.382259,-1.23175 -4.404704,-2.9854 -0.01129,-0.87362 1.052303,-1.26006 1.751004,-1.38601 1.424372,-0.25686 4.166308,0.32916 4.753107,1.82829 0.271672,0.69405 -0.428354,1.52974 -0.880365,1.94283 -0.280631,0.25642 -0.47999,0.45534 -0.877492,0.60029 -0.426361,0.15558 -0.619528,0.47082 -1.005531,0.75642 -0.626273,0.46329 -1.245358,0.41077 -1.497018,1.02743 -0.176251,0.43166 0.139431,1.36046 0.166412,1.97556 0.0145,0.33106 0.044,0.64619 -0.05606,0.99514 -0.181999,0.63556 -0.432332,1.17437 -0.713625,1.87971 -0.51758,1.29788 -1.210969,2.63977 -2.215727,3.64452 -0.613778,0.61367 -1.3211,1.10682 -2.207104,1.10682 -0.594759,0 -0.848963,-0.14452 -1.326851,-0.32851 -0.326075,0.76769 -0.422604,1.74503 -0.649384,2.6537 -0.438082,1.75443 -0.975124,3.50145 -1.608915,5.19683 -1.933884,5.17295 -4.640659,10.87818 -4.707222,16.47505 -0.0071,0.59388 4.18e-4,0.9769 -4.18e-4,1.548 -8.52e-4,0.44814 -0.03138,0.70246 -0.07906,1.10571 -0.07176,0.60891 -0.0313,1.46738 -0.03151,2.10085 -8.51e-4,1.90712 -0.797882,3.76195 -0.880255,5.63911 -0.02023,0.46263 -0.0042,0.76128 -0.0043,1.21628 -2.2e-4,0.50442 -0.02666,0.77223 -0.07906,1.21628 -0.08204,0.69571 -0.07496,1.10869 0.189629,1.65856 0.21495,-0.16873 0.394185,-0.34785 0.576848,-0.66398 0.184434,-0.31932 0.430898,-0.7689 0.622846,-1.10515 0.474348,-0.83117 1.055843,-1.75808 1.54335,-2.54313 0.800976,-1.28993 1.576738,-2.54391 2.261175,-3.86999 1.584038,-3.06889 3.078401,-6.1055 6.495151,-7.42914 1.050422,-0.4069 2.057061,-0.64131 3.095983,-0.64252 0.355595,-4.3e-4 0.641201,-0.0183 0.995138,0.0573 0.74359,0.15888 1.479547,0.60228 1.878709,1.26969 0.501216,0.83801 0.126049,1.87759 -0.316675,2.65359 -1.008628,1.76813 -2.540477,3.09465 -3.816021,4.64397 -2.793239,3.39264 -4.291034,7.60274 -6.997256,11.05709 -1.670394,2.13213 -4.468832,3.52267 -6.020804,5.44506 -0.300306,0.37185 -0.689185,0.78483 -0.977001,1.18962 -0.683438,0.96109 -0.886891,2.37518 -0.225125,3.42505 0.599514,0.95101 1.578513,0.0774 1.80651,-0.66121 0.25829,-0.83648 -0.486514,-2.97403 -0.812255,-3.53827 m 4.754545,-55.72771 c 0.151927,0.0418 0.241157,0.10427 0.555619,0.0737 0.349624,-0.034 0.941177,-0.22976 1.324087,-0.34166 1.016698,-0.29744 2.04788,-0.67072 2.985414,-1.14287 0.415854,-0.20941 1.900158,-1.00597 1.17946,-1.60139 -0.626609,-0.51759 -1.964404,0.38014 -2.506311,0.66608 -0.937089,0.49446 -2.149388,1.15303 -2.983754,1.70975 -0.371851,0.24802 -0.485075,0.47734 -0.896178,0.73895 -0.33337,0.21207 -0.633903,0.30098 -0.985187,0.45035 -0.350179,0.14883 -0.539696,0.26802 -0.884568,0.3368 -0.331933,0.0661 -0.573421,0.0334 -0.884563,0.0854 -0.956219,0.15955 -3.281303,0.27466 -3.511402,-1.19626 -0.204995,-1.31082 1.560376,-2.11478 2.516263,-2.56724 2.21816,-1.04987 4.754216,-1.65237 7.187104,-2.02975 0.752768,-0.11677 1.198147,-0.16066 1.879705,-0.15734 0.314245,0.002 0.594208,7.1e-4 0.884568,0.0883 1.841999,0.55551 2.083264,2.14729 3.206552,3.1181 m 3.206556,-1.65857 c 0.779302,0.53263 2.174045,1.00299 3.206557,1.66841 1.71872,1.10769 3.23895,2.6077 4.17317,4.41299 0.34299,0.66298 0.64816,1.28241 0.87505,1.99027 0.21307,0.6651 0.77875,2.19528 0.34996,2.83968 -0.41707,0.62673 -1.52433,-0.0329 -1.97048,-0.28128 -1.53207,-0.85283 -2.73243,-2.14033 -3.53827,-2.5584 -0.0357,0.22546 -0.0705,0.4152 0.11787,0.88457 0.15623,0.38921 0.38877,0.80662 0.53561,1.21628 0.41088,1.14673 0.29312,2.96209 -1.316909,2.97624 -2.168404,0.0189 -3.925818,-2.95733 -4.421508,-4.74536 -0.314682,-1.1349 -0.330714,-2.65659 -0.77532,-3.4277 m -1.105711,-3.98056 -0.651816,0.37628 -0.315012,0.55218 0.745134,0.0225 0.663981,-0.39816 m -1.547994,0.44228 c -0.84786,0.69614 -1.271452,1.18398 -2.068891,2.10084 -0.280628,0.32265 -0.536933,0.72921 -0.862783,1.09144 -0.426473,0.47413 -0.616323,0.47424 -1.047217,0.90082 -0.268246,0.26548 -0.461193,0.45799 -0.631694,0.77201 -0.179235,0.33038 -0.2291,0.62273 -0.359574,0.99514 -0.463955,1.32452 -0.203892,2.09864 0.547326,3.09598 m 8.735096,-8.62453 c 0.420388,0.33813 0.893966,0.49945 0.552855,1.32685 l 0.11057,0.11057 0.331712,-0.44227 h -0.442282 m -0.442286,-0.66343 0.221143,0.66343 0.221143,-0.22115 m 0.442282,0.22115 0.69726,1.10615 0.26725,0.88412 0.962076,1.54799 0.837689,1.21627 m -3.095987,-4.31226 c 0.191731,0.47845 0.403142,0.66774 0.884568,0.44228 m -0.331712,-0.44228 c -0.223467,0.22347 -0.108251,0.10826 -0.331713,0.33172 m 0.331713,0.44228 0.221139,-0.22114 m -15.479916,0.11057 c -0.196708,0.70091 -2.635017,2.64364 -1.310485,3.68168 0.997569,0.78173 3.141759,0.0955 4.185324,-0.28936 0.39861,-0.14706 0.724017,-0.29567 1.105711,-0.50167 0.42249,-0.22799 0.67437,-0.31269 0.995138,-0.34752 m 10.72537,-2.54313 -0.442281,0.22114 m 0.110569,0.22114 0.442282,0.22115 m -9.066807,0.44227 c -0.0092,0.17814 0.01513,0.33316 -0.137441,0.77424 -0.112008,0.32352 -0.32519,0.85293 -0.430894,1.21604 -0.315569,1.08382 -0.491265,2.41288 -0.979659,3.20656 m 0.884568,-4.97568 0.552856,0.55285 m -0.773999,37.48351 c -0.87583,0.95367 -1.756858,2.24426 -2.398389,3.4277 -1.290363,2.38026 -1.902043,5.07388 -3.290811,7.40825 -0.403032,0.67758 -0.885892,1.35172 -1.497902,1.85449 -0.247238,0.20312 -0.706327,0.29534 -0.881029,0.53251 -0.401152,0.54445 -0.0076,0.98242 -0.0033,1.48297 m -0.221144,-8.62451 c -0.04477,0.35393 -0.102278,0.72324 -0.157119,1.10569 -0.07651,0.53439 -0.03925,0.84942 -0.09553,1.32685 -0.07817,0.66167 -0.03615,1.72414 0.04865,2.43257 0.08857,0.73994 0.19151,1.35571 0.314575,1.99027"
       id="path2418" /><path
       style="fill:none;stroke:#ffffff;stroke-width:0.973393;stroke-dasharray:none"
       d="m 189.31774,198.24089 -8.87203,2.75637 c 2.24315,-2.65428 5.39916,-2.00749 8.09201,-4.28549 1.4035,-1.18744 2.87657,-4.51312 -0.24875,-4.46089 -1.77972,0.0295 -3.52054,1.7929 -5.04615,2.57578 -1.1535,-3.63121 0.62806,-6.78669 1.38871,-10.36361 0.57244,-2.6885 -0.68477,-12.60311 -5.06108,-7.0888 -3.66139,4.61296 0.15145,12.56031 -4.74939,15.94339 -2.13948,-5.0921 -5.91381,-5.63605 -4.75222,1.07684 0.4599,2.65954 1.23295,4.52871 3.71552,6.02002 l -3.64759,-5.40814 m 11.1495,-13.12214 c -3.66627,26.86926 -18.07507,49.55548 -34.19625,70.664 -3.70991,4.8576 -7.6345,11.49492 -13.29971,14.30459 -5.02254,2.4909 -11.06366,-0.41842 -11.84143,-6.11553 -0.86807,-6.36086 8.95373,-5.6632 10.56006,-0.67163 -2.86567,-0.0357 -3.67469,-1.24872 -4.37339,-3.64972 m 56.69867,-50.42581 -6.75012,1.6317 c 1.78612,-1.30283 14.75884,-6.11051 10.87542,-9.56255 m -15.95648,34.21619 c -0.11773,-0.43399 13.43068,0.39352 13.79733,-4.53944 0.4042,-5.43839 -13.90531,4.56107 -14.83742,-2.61815 -0.88424,-6.81252 15.22974,-1.61247 17.25579,-4.95677 2.58369,-4.26485 -10.22921,-2.74983 -12.2266,-2.77422 3.30272,-3.60219 10.20001,-3.18852 13.24234,-7.04156 2.46906,-3.12702 -4.60541,-4.82436 -5.54396,-4.33234 m -14.74905,-11.47945 c -4.38975,-1.14268 -3.43235,2.97377 -2.87344,5.35527 0.6543,2.78943 1.02232,5.2277 3.46526,7.13182 l -3.34435,-7.09366 m -0.93966,-3.23083 c -9.30167,-1.55206 -2.55899,12.28361 -1.163,15.55047 m -2.73434,-7.49981 c -5.49124,-4.7185 -4.70207,1.45297 -6.29526,4.48442 -2.52162,4.79742 -2.1099,13.40664 2.07365,16.66311 0.33755,-2.72104 -1.94387,-6.24405 -3.76915,-8.52814 m 18.72839,24.05708 -9.42666,-3.40225 c 5.14037,-0.41642 8.2181,2.78598 13.86236,1.7281 5.98879,-1.12231 3.66974,-5.66017 -0.7234,-7.56829 m -17.32058,-20.85032 0.74364,0.64778 2.02741,8.2172 -6.26716,-10.90026 m 3.57364,2.13653 -3.51745,-2.30089 m 19.48522,22.82673 -9.50206,-0.56218 c 2.15043,2.30934 4.83355,1.86963 7.55075,0.6012 m -19.31519,-14.63948 c -3.68992,-1.11923 -6.96904,0.2778 -6.10209,4.17251 1.27863,5.73759 6.30617,10.07363 3.94255,16.25086 l -11.74001,-13.14497 c -1.24687,5.06243 1.84837,9.2489 3.85674,13.73454 0.74477,1.66398 2.32459,4.44087 1.32597,6.27212 -2.28918,4.19774 -7.35701,-7.43178 -9.50591,-7.47008 -6.98715,-0.12458 2.10989,13.04866 2.863,15.01664 -4.95338,1.19103 -5.97175,-5.48281 -10.52036,-5.22555 -4.1321,0.23347 -1.89062,6.6321 -1.56949,8.9793 m -19.99687,41.85101 c 4.17712,-10.18205 17.23942,-28.50472 29.60861,-28.93628 7.08966,-0.24735 13.77405,10.69752 20.95872,5.3193 1.74835,-1.30876 3.8548,-5.22361 0.80789,-6.34861 -2.65676,-0.98007 -15.87198,1.27914 -13.98975,-5.86231 1.60485,-6.08946 15.37047,1.70263 19.25591,1.24023 3.39364,-0.40441 3.57544,-4.17459 0.56996,-5.47992 -4.41672,-1.91764 -9.72184,1.48353 -12.70974,-3.50057 5.25525,-1.7841 9.8143,1.18777 15.07367,1.13429 1.63492,-0.0166 4.79347,-0.22181 4.84391,-2.50171 0.0839,-3.79865 -12.32845,-2.91506 -10.3494,-6.2158 2.28238,-3.80687 10.97102,3.06572 14.5498,1.8031 4.45732,-1.57268 -1.01937,-5.70452 -2.49602,-7.1191"
       id="path2490"
       sodipodi:nodetypes="ccscccccccccsscccccccscscscccccccccccccccccccccccccccccssccccsscscccccssc" /><path
       style="fill:none;stroke:#ffffff;stroke-width:1.05833;stroke-linecap:butt;stroke-linejoin:miter;stroke-dasharray:none;stroke-opacity:1"
       d="m 106.98778,297.52605 c 0,0 -4.26645,-13.11201 -12.60051,-10.42599 -8.586381,0.30388 -5.751705,6.37479 -5.751705,6.37479 2.83095,3.69259 3.984506,1.64935 5.742254,-1.84633 0,0 3.321802,-9.76119 -8.151449,-6.08194 -6.018483,2.8482 -12.93154,11.96234 -12.93154,11.96234 0,0 -1.95672,0.0528 -4.769045,-0.14905 -0.408257,-0.0293 -5.503575,-4.39349 -2.29124,-5.34218 2.642129,-0.78029 0.543629,5.19199 0.301881,5.16656 -1.329172,-0.13984 -2.76794,-0.3376 -4.232643,-0.61664 -2.21873,-0.42269 -3.069328,-3.83785 -3.258032,-5.09428 -0.108475,-0.72225 1.166379,-1.98992 2.16279,0.73806 1.042789,2.85495 0.03051,3.6841 -1.829788,3.61142 -2.171894,-0.0849 -4.136337,-1.25578 -5.831968,-2.19983 0,0 -5.008256,-2.10874 -3.979789,-4.53553 0.953842,-2.4782 2.701764,-3.63733 4.04605,-2.12312 1.389841,1.42286 0.256393,3.43964 0.256393,3.43964 -2.108896,5.29827 -11.313322,6.87283 -11.313322,6.87283 0,0 -8.501232,-0.0209 -10.54327,-4.1767 -2.259775,-5.86952 1.229934,-9.07736 -2.396369,-10.03487 -4.951265,1.11234 -1.712634,3.73061 -4.241748,5.93312 -2.760874,0.73157 -3.341509,-0.35619 -3.341509,-0.35619"
       id="path7021"
       sodipodi:nodetypes="ccccccsssssssccccccccc" /></g></svg>
